<mxfile host="app.diagrams.net" modified="2023-08-10T14:19:22.611Z" agent="Mozilla/5.0 (Windows NT 10.0; Win64; x64; rv:109.0) Gecko/20100101 Firefox/116.0" etag="lCwjQA88HNr1MIPYruw6" version="21.2.1" type="github">
  <diagram name="Sivu-1" id="dVFOmkE58-xk7HbGH26S">
    <mxGraphModel dx="2074" dy="1097" grid="1" gridSize="5" guides="1" tooltips="1" connect="1" arrows="1" fold="1" page="1" pageScale="1" pageWidth="1169" pageHeight="827" math="1" shadow="0">
      <root>
        <mxCell id="0" />
        <mxCell id="1" parent="0" />
        <mxCell id="7A0JXXa-Py3rXMK70Vjk-11" value="" style="rounded=1;whiteSpace=wrap;html=1;arcSize=3;fillColor=#F2F2F2;strokeWidth=2;" parent="1" vertex="1">
          <mxGeometry x="120" y="90" width="780" height="650" as="geometry" />
        </mxCell>
        <mxCell id="7A0JXXa-Py3rXMK70Vjk-1" value="&lt;font style=&quot;font-size: 20px;&quot;&gt;Get next error signal block from audio interface&lt;br&gt;&lt;/font&gt;" style="rounded=1;whiteSpace=wrap;html=1;" parent="1" vertex="1">
          <mxGeometry x="360" y="130" width="240" height="70" as="geometry" />
        </mxCell>
        <mxCell id="7A0JXXa-Py3rXMK70Vjk-16" style="edgeStyle=orthogonalEdgeStyle;rounded=0;orthogonalLoop=1;jettySize=auto;html=1;entryX=0.5;entryY=0;entryDx=0;entryDy=0;strokeWidth=3;strokeColor=#3333FF;" parent="1" source="7A0JXXa-Py3rXMK70Vjk-4" target="7A0JXXa-Py3rXMK70Vjk-8" edge="1">
          <mxGeometry relative="1" as="geometry" />
        </mxCell>
        <mxCell id="7A0JXXa-Py3rXMK70Vjk-4" value="&lt;font style=&quot;font-size: 20px;&quot;&gt;Read next block from audio file&lt;/font&gt;" style="rounded=1;whiteSpace=wrap;html=1;" parent="1" vertex="1">
          <mxGeometry x="130" y="130" width="160" height="70" as="geometry" />
        </mxCell>
        <mxCell id="7A0JXXa-Py3rXMK70Vjk-5" value="&lt;font style=&quot;font-size: 20px;&quot;&gt;Set \(y(n)\) to all zeroes&lt;br&gt;&lt;/font&gt;" style="rounded=1;whiteSpace=wrap;html=1;" parent="1" vertex="1">
          <mxGeometry x="360" y="420" width="240" height="80" as="geometry" />
        </mxCell>
        <mxCell id="7A0JXXa-Py3rXMK70Vjk-6" value="&lt;font style=&quot;font-size: 20px;&quot;&gt;Output block to secondary source&lt;/font&gt;" style="rounded=1;whiteSpace=wrap;html=1;" parent="1" vertex="1">
          <mxGeometry x="380" y="610" width="200" height="80" as="geometry" />
        </mxCell>
        <mxCell id="7A0JXXa-Py3rXMK70Vjk-17" style="edgeStyle=orthogonalEdgeStyle;rounded=0;orthogonalLoop=1;jettySize=auto;html=1;entryX=0.172;entryY=-0.01;entryDx=0;entryDy=0;entryPerimeter=0;strokeWidth=3;strokeColor=#3333FF;" parent="1" source="7A0JXXa-Py3rXMK70Vjk-8" target="7A0JXXa-Py3rXMK70Vjk-13" edge="1">
          <mxGeometry relative="1" as="geometry" />
        </mxCell>
        <mxCell id="7A0JXXa-Py3rXMK70Vjk-8" value="&lt;font style=&quot;font-size: 20px;&quot;&gt;Output block to primary source&lt;/font&gt;" style="rounded=1;whiteSpace=wrap;html=1;" parent="1" vertex="1">
          <mxGeometry x="130" y="610" width="160" height="80" as="geometry" />
        </mxCell>
        <mxCell id="7A0JXXa-Py3rXMK70Vjk-9" value="&lt;font style=&quot;font-size: 18px;&quot;&gt;Get next second microphone signal block from audio interface&lt;/font&gt;" style="rounded=1;whiteSpace=wrap;html=1;" parent="1" vertex="1">
          <mxGeometry x="680" y="130" width="200" height="70" as="geometry" />
        </mxCell>
        <mxCell id="7A0JXXa-Py3rXMK70Vjk-13" value="&lt;font style=&quot;font-size: 18px;&quot;&gt;Audio interface RME Fireface UCX&lt;/font&gt;" style="rounded=0;whiteSpace=wrap;html=1;strokeWidth=2;fillColor=#999999;" parent="1" vertex="1">
          <mxGeometry x="120" y="760" width="520" height="60" as="geometry" />
        </mxCell>
        <mxCell id="7A0JXXa-Py3rXMK70Vjk-14" value="&lt;font style=&quot;font-size: 18px;&quot;&gt;measurement.wav file&lt;/font&gt;" style="rounded=0;whiteSpace=wrap;html=1;strokeWidth=2;fillColor=#B3B3B3;" parent="1" vertex="1">
          <mxGeometry x="660" y="760" width="240" height="60" as="geometry" />
        </mxCell>
        <mxCell id="7A0JXXa-Py3rXMK70Vjk-15" value="" style="endArrow=classic;html=1;rounded=0;exitX=0.375;exitY=1;exitDx=0;exitDy=0;entryX=0.5;entryY=0;entryDx=0;entryDy=0;strokeWidth=3;strokeColor=#3333FF;exitPerimeter=0;" parent="1" source="7A0JXXa-Py3rXMK70Vjk-12" target="7A0JXXa-Py3rXMK70Vjk-4" edge="1">
          <mxGeometry width="50" height="50" relative="1" as="geometry">
            <mxPoint x="250" y="290" as="sourcePoint" />
            <mxPoint x="300" y="240" as="targetPoint" />
          </mxGeometry>
        </mxCell>
        <mxCell id="7A0JXXa-Py3rXMK70Vjk-19" value="" style="endArrow=classic;html=1;rounded=0;entryX=0.5;entryY=0;entryDx=0;entryDy=0;strokeWidth=3;strokeColor=#009900;" parent="1" target="7A0JXXa-Py3rXMK70Vjk-1" edge="1">
          <mxGeometry width="50" height="50" relative="1" as="geometry">
            <mxPoint x="480" y="70" as="sourcePoint" />
            <mxPoint x="530" y="20" as="targetPoint" />
          </mxGeometry>
        </mxCell>
        <mxCell id="7A0JXXa-Py3rXMK70Vjk-20" value="" style="endArrow=classic;html=1;rounded=0;strokeColor=#009999;strokeWidth=3;entryX=0.5;entryY=0;entryDx=0;entryDy=0;exitX=0.769;exitY=1;exitDx=0;exitDy=0;exitPerimeter=0;" parent="1" source="7A0JXXa-Py3rXMK70Vjk-10" target="7A0JXXa-Py3rXMK70Vjk-9" edge="1">
          <mxGeometry width="50" height="50" relative="1" as="geometry">
            <mxPoint x="800" y="70" as="sourcePoint" />
            <mxPoint x="850" y="20" as="targetPoint" />
          </mxGeometry>
        </mxCell>
        <mxCell id="7A0JXXa-Py3rXMK70Vjk-25" value="" style="endArrow=classic;html=1;rounded=0;entryX=0.692;entryY=0;entryDx=0;entryDy=0;entryPerimeter=0;strokeWidth=3;strokeColor=#9933FF;" parent="1" source="7A0JXXa-Py3rXMK70Vjk-6" target="7A0JXXa-Py3rXMK70Vjk-13" edge="1">
          <mxGeometry width="50" height="50" relative="1" as="geometry">
            <mxPoint x="480" y="730" as="sourcePoint" />
            <mxPoint x="480" y="750.7106781186548" as="targetPoint" />
          </mxGeometry>
        </mxCell>
        <mxCell id="7A0JXXa-Py3rXMK70Vjk-28" value="" style="endArrow=classic;html=1;rounded=0;strokeColor=#0000FF;strokeWidth=3;" parent="1" edge="1">
          <mxGeometry width="50" height="50" relative="1" as="geometry">
            <mxPoint x="210" y="570" as="sourcePoint" />
            <mxPoint x="720" y="610" as="targetPoint" />
            <Array as="points">
              <mxPoint x="720" y="570" />
            </Array>
          </mxGeometry>
        </mxCell>
        <mxCell id="7A0JXXa-Py3rXMK70Vjk-29" value="" style="endArrow=classic;html=1;rounded=0;strokeColor=#9933FF;strokeWidth=3;" parent="1" edge="1">
          <mxGeometry width="50" height="50" relative="1" as="geometry">
            <mxPoint x="480" y="550" as="sourcePoint" />
            <mxPoint x="760" y="610" as="targetPoint" />
            <Array as="points">
              <mxPoint x="760" y="550" />
            </Array>
          </mxGeometry>
        </mxCell>
        <mxCell id="7A0JXXa-Py3rXMK70Vjk-30" value="" style="endArrow=classic;html=1;rounded=0;strokeColor=#009900;strokeWidth=3;exitX=0.5;exitY=1;exitDx=0;exitDy=0;" parent="1" edge="1" source="7A0JXXa-Py3rXMK70Vjk-1">
          <mxGeometry width="50" height="50" relative="1" as="geometry">
            <mxPoint x="480" y="230" as="sourcePoint" />
            <mxPoint x="800" y="610" as="targetPoint" />
            <Array as="points">
              <mxPoint x="480" y="230" />
              <mxPoint x="800" y="230" />
            </Array>
          </mxGeometry>
        </mxCell>
        <mxCell id="7A0JXXa-Py3rXMK70Vjk-31" value="" style="endArrow=classic;html=1;rounded=0;exitX=0.8;exitY=0.993;exitDx=0;exitDy=0;strokeWidth=3;strokeColor=#009999;exitPerimeter=0;" parent="1" source="7A0JXXa-Py3rXMK70Vjk-9" edge="1">
          <mxGeometry width="50" height="50" relative="1" as="geometry">
            <mxPoint x="1370" y="170" as="sourcePoint" />
            <mxPoint x="840" y="610" as="targetPoint" />
            <Array as="points">
              <mxPoint x="840" y="220" />
            </Array>
          </mxGeometry>
        </mxCell>
        <mxCell id="7A0JXXa-Py3rXMK70Vjk-32" value="" style="endArrow=classic;html=1;rounded=0;strokeWidth=3;strokeColor=#3333FF;exitX=0.2;exitY=0.996;exitDx=0;exitDy=0;exitPerimeter=0;" parent="1" source="7A0JXXa-Py3rXMK70Vjk-26" edge="1">
          <mxGeometry width="50" height="50" relative="1" as="geometry">
            <mxPoint x="720" y="720" as="sourcePoint" />
            <mxPoint x="720" y="760" as="targetPoint" />
          </mxGeometry>
        </mxCell>
        <mxCell id="7A0JXXa-Py3rXMK70Vjk-33" value="" style="endArrow=classic;html=1;rounded=0;entryX=0.417;entryY=0;entryDx=0;entryDy=0;entryPerimeter=0;strokeColor=#9933FF;strokeWidth=3;exitX=0.4;exitY=1;exitDx=0;exitDy=0;exitPerimeter=0;" parent="1" source="7A0JXXa-Py3rXMK70Vjk-26" target="7A0JXXa-Py3rXMK70Vjk-14" edge="1">
          <mxGeometry width="50" height="50" relative="1" as="geometry">
            <mxPoint x="760" y="720" as="sourcePoint" />
            <mxPoint x="810" y="670" as="targetPoint" />
          </mxGeometry>
        </mxCell>
        <mxCell id="7A0JXXa-Py3rXMK70Vjk-34" value="" style="endArrow=classic;html=1;rounded=0;strokeColor=#009900;strokeWidth=3;exitX=0.6;exitY=1;exitDx=0;exitDy=0;exitPerimeter=0;" parent="1" source="7A0JXXa-Py3rXMK70Vjk-26" edge="1">
          <mxGeometry width="50" height="50" relative="1" as="geometry">
            <mxPoint x="800" y="720" as="sourcePoint" />
            <mxPoint x="800" y="760" as="targetPoint" />
          </mxGeometry>
        </mxCell>
        <mxCell id="7A0JXXa-Py3rXMK70Vjk-35" value="" style="endArrow=classic;html=1;rounded=0;strokeColor=#009999;strokeWidth=3;exitX=0.8;exitY=0.996;exitDx=0;exitDy=0;exitPerimeter=0;" parent="1" source="7A0JXXa-Py3rXMK70Vjk-26" edge="1">
          <mxGeometry width="50" height="50" relative="1" as="geometry">
            <mxPoint x="840" y="720" as="sourcePoint" />
            <mxPoint x="840" y="760" as="targetPoint" />
          </mxGeometry>
        </mxCell>
        <mxCell id="7A0JXXa-Py3rXMK70Vjk-26" value="&lt;font style=&quot;font-size: 20px;&quot;&gt;Save signal blocks to measurement file&lt;/font&gt;" style="rounded=1;whiteSpace=wrap;html=1;" parent="1" vertex="1">
          <mxGeometry x="680" y="610" width="200" height="80" as="geometry" />
        </mxCell>
        <mxCell id="7A0JXXa-Py3rXMK70Vjk-24" value="" style="endArrow=classic;html=1;rounded=0;entryX=0.5;entryY=0;entryDx=0;entryDy=0;strokeWidth=3;strokeColor=#9933FF;" parent="1" target="7A0JXXa-Py3rXMK70Vjk-6" edge="1">
          <mxGeometry width="50" height="50" relative="1" as="geometry">
            <mxPoint x="480" y="500" as="sourcePoint" />
            <mxPoint x="480" y="590" as="targetPoint" />
          </mxGeometry>
        </mxCell>
        <mxCell id="7A0JXXa-Py3rXMK70Vjk-12" value="&lt;font style=&quot;font-size: 18px;&quot;&gt;test_signal.wav file&lt;br&gt;&lt;/font&gt;" style="rounded=0;whiteSpace=wrap;html=1;strokeWidth=2;fillColor=#B3B3B3;" parent="1" vertex="1">
          <mxGeometry x="120" y="10" width="240" height="60" as="geometry" />
        </mxCell>
        <mxCell id="7A0JXXa-Py3rXMK70Vjk-10" value="&lt;font style=&quot;font-size: 18px;&quot;&gt;Audio interface RME Fireface UCX&lt;/font&gt;" style="rounded=0;whiteSpace=wrap;html=1;strokeWidth=2;fillColor=#999999;" parent="1" vertex="1">
          <mxGeometry x="380" y="10" width="520" height="60" as="geometry" />
        </mxCell>
        <mxCell id="hqchSrSlZ_NH0eYfHbdW-8" value="&lt;font color=&quot;#009999&quot; style=&quot;font-size: 20px;&quot;&gt;$$e_2(n)$$&lt;/font&gt;" style="text;html=1;strokeColor=none;fillColor=none;align=center;verticalAlign=middle;whiteSpace=wrap;rounded=0;" parent="1" vertex="1">
          <mxGeometry x="790" y="100" width="60" height="30" as="geometry" />
        </mxCell>
        <mxCell id="hqchSrSlZ_NH0eYfHbdW-9" value="&lt;font color=&quot;#009900&quot; style=&quot;font-size: 20px;&quot;&gt;$$e(n)$$&lt;/font&gt;" style="text;html=1;strokeColor=none;fillColor=none;align=center;verticalAlign=middle;whiteSpace=wrap;rounded=0;" parent="1" vertex="1">
          <mxGeometry x="480" y="100" width="60" height="30" as="geometry" />
        </mxCell>
        <mxCell id="hqchSrSlZ_NH0eYfHbdW-10" value="&lt;font color=&quot;#0000ff&quot; style=&quot;font-size: 20px;&quot;&gt;$$d(n)$$&lt;/font&gt;" style="text;html=1;strokeColor=none;fillColor=none;align=center;verticalAlign=middle;whiteSpace=wrap;rounded=0;" parent="1" vertex="1">
          <mxGeometry x="210" y="700" width="60" height="30" as="geometry" />
        </mxCell>
        <mxCell id="hqchSrSlZ_NH0eYfHbdW-11" value="&lt;font color=&quot;#7f00ff&quot; style=&quot;font-size: 20px;&quot;&gt;$$u(n)$$&lt;/font&gt;" style="text;html=1;strokeColor=none;fillColor=none;align=center;verticalAlign=middle;whiteSpace=wrap;rounded=0;" parent="1" vertex="1">
          <mxGeometry x="490" y="700" width="60" height="30" as="geometry" />
        </mxCell>
      </root>
    </mxGraphModel>
  </diagram>
</mxfile>
